# xmcd
#
# Track frame offsets: 
#        150
#        13932
#        29324
#        45208
#        65445
#        84223
#        101035
#        121746
#        137487
#        158273
#        176738
#        188090
#        207874
#
# Disc length: 3520 seconds
#
# Revision: 0
# Processed by: cddbd v1.5.2PL0 Copyright (c) Steve Scherf et al.
# Submitted via: ExactAudioCopy v0.95a5
#
DISCID=980dbe0d
DTITLE=Eric Bibb - Jericho Road
DYEAR=2013
DGENRE=
TTITLE0=Drinkin' Gourd
TTITLE1=Freedom Train
TTITLE2=Let The Mothers Step Up
TTITLE3=Have A Heart
TTITLE4=The Right Thing
TTITLE5=Death Row Blues
TTITLE6=Can't Please Everybody
TTITLE7=The Lord's Work
TTITLE8=With My Maker I Am One
TTITLE9=They Know
TTITLE10=She Got Mine
TTITLE11=Good Like You
TTITLE12=One Day At A Time
EXTD=
EXTT0=
EXTT1=
EXTT2=
EXTT3=
EXTT4=
EXTT5=
EXTT6=
EXTT7=
EXTT8=
EXTT9=
EXTT10=
EXTT11=
EXTT12=
PLAYORDER=
